<?xml version="1.0" standalone="no"?>
<!DOCTYPE svg PUBLIC "-//W3C//DTD SVG 20010904//EN"
 "http://www.w3.org/TR/2001/REC-SVG-20010904/DTD/svg10.dtd">
<svg version="1.0" xmlns="http://www.w3.org/2000/svg"
 width="500.000000pt" height="279.000000pt" viewBox="0 0 500.000000 279.000000"
 preserveAspectRatio="xMidYMid meet">

<g transform="translate(0.000000,279.000000) scale(0.100000,-0.100000)"
fill="#000000" stroke="none">
<path d="M4383 2610 c-45 -26 -126 -86 -181 -132 -54 -46 -134 -106 -176 -133
-42 -28 -107 -70 -144 -93 -87 -57 -147 -87 -200 -102 -116 -31 -332 -135
-415 -201 -33 -25 -70 -103 -88 -184 -10 -45 -20 -63 -48 -87 -38 -31 -162
-84 -221 -94 -239 -40 -396 -83 -678 -189 -111 -42 -246 -87 -300 -101 -53
-15 -108 -32 -122 -40 -14 -7 -72 -31 -130 -53 -58 -21 -123 -48 -145 -59 -22
-11 -69 -32 -104 -47 -70 -29 -297 -149 -321 -170 -8 -7 -55 -31 -105 -54 -49
-23 -96 -48 -105 -55 -8 -8 -44 -29 -80 -48 -36 -19 -83 -46 -106 -60 -23 -15
-81 -40 -130 -58 -188 -66 -261 -105 -301 -164 -64 -94 -67 -214 -5 -279 37
-40 68 -54 146 -68 70 -13 119 -4 221 41 22 10 87 37 145 60 58 23 110 45 115
49 6 5 44 21 85 36 41 16 120 49 175 75 55 26 129 57 165 70 36 13 70 27 75
31 24 17 182 59 291 78 225 37 280 42 559 52 576 19 690 34 836 111 265 140
327 174 354 194 17 12 66 40 110 63 85 43 165 88 330 183 71 40 176 121 258
198 64 60 178 224 251 364 77 146 179 310 259 416 19 25 52 78 73 118 42 82
55 164 34 226 -24 74 -162 157 -256 155 -28 0 -63 -15 -121 -49z m182 -105
c110 -45 112 -128 9 -285 -92 -139 -119 -181 -195 -303 -42 -67 -99 -163 -126
-212 -114 -210 -203 -310 -350 -390 -38 -20 -77 -45 -88 -55 -24 -21 -202
-124 -305 -175 -41 -21 -77 -41 -80 -45 -4 -7 -307 -173 -412 -227 -82 -42
-344 -70 -733 -78 -115 -3 -253 -9 -305 -15 -52 -5 -140 -15 -195 -20 -139
-14 -316 -55 -405 -94 -41 -18 -93 -39 -115 -46 -22 -7 -94 -38 -160 -70 -66
-31 -131 -61 -145 -65 -14 -4 -86 -33 -160 -65 -245 -105 -294 -123 -338 -123
-51 0 -93 27 -103 67 -10 36 15 117 43 143 33 29 116 66 245 108 62 19 115 40
118 46 4 5 39 26 78 46 40 19 95 50 122 68 116 75 495 267 585 296 36 12 70
25 75 29 14 11 327 134 422 166 43 14 101 34 128 44 186 69 275 104 310 120
47 22 149 50 184 50 26 0 159 29 281 62 41 11 108 35 148 53 81 38 86 36 86
-32 0 -41 -43 -88 -117 -127 -49 -27 -66 -30 -280 -47 -258 -20 -273 -26 -308
-106 -41 -96 -17 -177 64 -214 63 -30 124 -30 232 -1 44 12 145 40 225 61 101
27 184 57 273 100 71 34 150 71 175 82 69 32 181 99 216 131 17 16 65 46 107
68 96 50 246 148 287 188 37 36 68 95 81 153 17 77 -33 156 -118 184 -84 28
-248 -9 -441 -97 -41 -19 -100 -43 -130 -53 -30 -10 -76 -29 -101 -42 -55 -27
-69 -29 -69 -8 0 60 86 127 225 175 50 18 106 40 125 50 19 11 69 33 110 50
42 16 100 46 130 66 30 19 82 51 115 70 64 38 140 91 311 221 165 125 185 133
269 98z m-561 -656 c29 -23 33 -53 12 -102 -15 -37 -111 -108 -241 -177 -44
-24 -100 -57 -125 -74 -94 -66 -203 -128 -297 -173 -54 -25 -134 -62 -178 -83
-44 -21 -96 -41 -115 -45 -19 -4 -98 -24 -175 -44 -77 -21 -165 -43 -195 -49
-60 -13 -108 -5 -123 19 -14 22 -1 66 21 73 29 10 170 26 294 36 89 6 133 15
184 35 173 69 235 154 220 302 l-7 63 38 16 c21 9 99 41 173 71 74 30 158 66
185 78 84 39 147 58 220 65 39 4 73 8 76 9 4 0 18 -8 33 -20z"/>
</g>
</svg>
