<?xml version="1.0" encoding="UTF-8"?>
<!-- Silueta derivada de datos de OpenStreetMap (ODbL): https://www.openstreetmap.org/copyright -->
<svg xmlns="http://www.w3.org/2000/svg" viewBox="0 0 1000 600" role="img">
  <title>Silueta de circuito</title>
  <path d="M349.37 500.00 L351.70 497.24 L329.57 509.03 L325.17 511.78 L322.20 514.32 L320.10 516.55 L318.15 519.45 L316.39 522.43 L314.93 526.21 L313.52 531.26 L311.23 535.74 L308.89 539.13 L306.25 541.84 L303.97 543.90 L301.73 545.58 L299.04 546.86 L296.23 547.99 L286.52 549.41 L270.36 551.60 L254.72 553.69 L250.73 554.00 L248.37 553.46 L246.30 551.88 L244.97 550.18 L244.02 548.46 L243.61 546.16 L243.57 543.65 L244.11 541.56 L244.93 539.72 L246.14 537.99 L248.70 535.75 L251.57 534.05 L255.52 531.68 L258.06 530.16 L261.88 533.13 L264.19 534.30 L266.78 534.75 L269.54 534.41 L272.73 532.86 L275.66 530.73 L282.12 524.24 L284.90 520.36 L294.41 506.82 L297.36 502.94 L305.06 491.74 L340.72 437.01 L386.33 368.63 L394.01 356.59 L399.15 349.43 L403.20 344.13 L407.73 338.67 L411.50 334.66 L414.37 331.69 L417.67 328.71 L421.12 326.13 L424.19 324.29 L428.42 322.26 L432.99 320.72 L437.55 319.64 L442.99 319.02 L448.74 318.75 L453.42 318.72 L460.90 320.68 L469.46 320.84 L479.88 320.69 L481.16 320.58 L482.30 319.99 L483.35 318.75 L489.55 309.60 L492.98 306.71 L495.81 303.56 L498.09 300.56 L500.01 297.30 L599.22 85.30 L602.86 77.81 L605.90 73.04 L609.21 69.25 L613.18 65.17 L616.93 61.90 L621.63 58.49 L626.60 55.45 L631.64 52.90 L635.15 51.27 L638.85 49.82 L643.50 48.39 L648.03 47.46 L653.16 46.59 L658.54 46.05 L664.71 46.00 L671.78 46.33 L677.57 47.22 L684.07 48.43 L690.74 50.28 L697.89 52.74 L704.52 55.48 L711.20 58.55 L717.63 61.93 L723.97 65.55 L727.22 67.62 L730.39 69.68 L733.42 71.92 L736.40 74.64 L740.62 79.39 L744.33 84.73 L748.02 90.61 L751.06 96.68 L753.12 102.48 L754.73 108.34 L755.94 114.56 L756.43 121.42 L756.14 128.15 L755.23 134.21 L753.37 141.98 L751.79 146.34 L750.16 150.10 L746.91 155.25 L743.42 160.39 L538.80 455.95 L534.96 461.35 L531.48 465.01 L529.98 465.98 L527.32 467.39 L522.68 468.64 L518.48 469.01 L503.68 469.03 L499.41 469.92 L495.91 471.75 L493.02 473.94 L491.10 475.89 L489.59 478.08 L481.47 494.37 L477.81 501.50 L472.33 506.76 L469.50 510.72 L465.59 514.99 L461.77 518.41 L457.69 521.26 L452.53 523.98 L446.83 526.50 L440.47 528.15 L434.10 529.20 L389.34 535.24 L337.64 542.35 L341.54 540.41 L345.16 537.81 L349.06 534.12 L352.58 530.15 L358.08 523.31 L359.27 520.74 L359.58 518.79 L359.02 516.96 L357.80 515.16 L355.95 513.76 L351.73 511.04 L349.40 508.85 L348.22 506.78 L347.70 504.73 L348.25 501.97 L349.37 500.00 Z" fill="none" stroke="#ffffff" stroke-width="18" stroke-linecap="round" stroke-linejoin="round"/>
</svg>
