<?xml version="1.0" encoding="UTF-8"?>
<!-- Silueta derivada de datos de OpenStreetMap (ODbL): https://www.openstreetmap.org/copyright -->
<svg xmlns="http://www.w3.org/2000/svg" viewBox="0 0 1000 600" role="img">
  <title>Silueta de circuito</title>
  <path d="M679.10 356.18 L679.98 329.51 L682.52 315.45 L686.41 290.91 L689.10 185.57 L690.60 180.93 L693.14 177.04 L719.48 150.70 L722.17 147.56 L723.67 144.87 L723.52 140.98 L720.97 135.29 L718.43 130.65 L715.28 127.66 L666.51 95.79 L662.17 93.84 L652.00 92.64 L591.05 52.12 L581.96 48.37 L572.09 46.20 L562.42 46.00 L542.28 51.53 L538.92 53.50 L537.14 56.86 L537.74 63.58 L541.69 69.69 L545.67 73.74 L551.75 77.79 L601.31 108.20 L611.36 116.52 L619.08 126.17 L625.20 139.19 L629.35 153.22 L630.73 167.23 L627.97 184.81 L608.42 250.56 L604.86 265.36 L604.47 278.79 L606.05 290.24 L622.63 346.90 L623.43 353.03 L622.24 358.16 L618.29 361.91 L541.69 390.14 L536.55 391.72 L532.01 391.72 L524.71 389.75 L519.18 386.79 L514.44 385.40 L509.90 385.21 L506.15 385.40 L434.68 411.86 L423.78 416.57 L418.69 418.77 L392.03 430.61 L374.24 440.10 L360.64 448.38 L337.74 464.57 L310.69 485.89 L294.50 501.88 L285.42 513.53 L279.23 524.08 L277.42 528.78 L276.33 537.42 L277.32 545.12 L278.11 548.87 L280.68 552.82 L284.43 554.00 L288.77 553.41 L383.34 507.21 L396.38 501.49 L437.19 486.37 L499.24 463.38 L507.73 459.64 L517.99 454.31 L558.86 428.44 L564.39 426.47 L569.72 425.48 L584.33 425.09 L592.23 424.50 L597.17 423.70 L619.08 417.19 L628.56 413.44 L644.36 408.07 L653.49 402.68 L662.02 395.80 L667.55 388.02 L672.49 378.89 L678.31 364.08 L679.10 356.18 Z" fill="none" stroke="#ffffff" stroke-width="18" stroke-linecap="round" stroke-linejoin="round"/>
</svg>
