<?xml version="1.0" encoding="UTF-8"?>
<!-- Silueta derivada de datos de OpenStreetMap (ODbL): https://www.openstreetmap.org/copyright -->
<svg xmlns="http://www.w3.org/2000/svg" viewBox="0 0 1000 600" role="img">
  <title>Silueta de circuito</title>
  <path d="M661.89 275.31 L656.02 268.71 L629.51 238.90 L599.00 215.03 L527.37 135.83 L519.80 128.26 L515.76 126.71 L510.73 126.50 L505.82 128.84 L496.50 135.54 L488.93 137.87 L484.23 138.70 L478.48 138.87 L472.34 137.57 L468.32 135.44 L463.31 130.30 L451.90 118.19 L396.92 59.82 L387.13 51.33 L359.94 46.72 L351.82 46.00 L345.39 46.80 L338.10 50.44 L332.00 55.72 L327.66 61.67 L324.87 68.52 L324.00 76.02 L324.79 83.29 L326.73 88.15 L329.95 93.02 L429.82 202.01 L438.59 211.58 L508.73 288.12 L520.82 302.81 L524.10 307.61 L525.80 316.17 L525.33 323.06 L522.71 331.80 L520.00 336.13 L515.29 339.79 L506.98 342.86 L470.88 348.39 L460.98 351.60 L455.43 354.48 L449.89 359.37 L446.82 365.14 L443.72 373.86 L443.20 380.79 L444.18 389.90 L447.17 397.91 L453.12 404.88 L459.26 410.17 L469.42 414.78 L480.04 415.96 L490.39 415.95 L499.70 415.37 L507.44 419.04 L510.78 422.29 L513.12 425.54 L515.06 434.66 L514.48 440.42 L512.74 445.01 L507.58 451.05 L503.96 453.17 L499.33 455.03 L449.67 458.73 L436.81 458.75 L427.87 457.06 L419.92 454.38 L409.92 447.61 L403.52 440.33 L396.92 427.59 L388.18 408.67 L383.56 400.41 L375.93 391.48 L367.02 386.24 L357.12 383.68 L346.89 382.95 L335.85 384.95 L325.29 390.55 L319.94 395.68 L316.27 400.81 L311.96 409.89 L310.73 419.73 L319.20 468.66 L320.45 475.28 L322.66 481.45 L325.87 487.28 L332.23 493.94 L340.14 500.09 L409.44 539.11 L427.86 548.77 L436.52 551.05 L448.02 552.95 L462.66 554.00 L476.71 552.89 L491.58 548.64 L504.62 542.88 L522.33 532.48 L610.64 478.55 L636.85 460.50 L643.11 454.97 L649.37 447.10 L670.07 413.46 L678.40 399.08 L684.06 386.05 L684.89 384.21 L688.10 366.45 L689.27 350.44 L689.11 335.46 L687.28 323.66 L683.18 311.09 L676.74 296.86 L663.35 277.42 L661.89 275.31 Z" fill="none" stroke="#ffffff" stroke-width="18" stroke-linecap="round" stroke-linejoin="round"/>
</svg>
