<?xml version="1.0" encoding="UTF-8"?>
<!-- Silueta derivada de datos de OpenStreetMap (ODbL): https://www.openstreetmap.org/copyright -->
<svg xmlns="http://www.w3.org/2000/svg" viewBox="0 0 1000 600" role="img">
  <title>Silueta de circuito</title>
  <path d="M752.19 353.65 L753.42 350.24 L753.58 346.34 L752.34 342.87 L719.30 286.76 L693.63 245.04 L690.42 238.71 L685.84 226.95 L682.42 214.46 L680.98 205.47 L679.85 195.54 L679.77 185.21 L680.50 175.42 L682.65 163.82 L686.72 150.74 L691.60 140.00 L697.20 129.91 L703.58 120.59 L710.76 111.97 L747.09 75.84 L749.22 70.53 L750.03 65.33 L749.57 60.29 L747.73 55.73 L744.64 52.05 L741.05 49.14 L735.58 46.63 L729.67 46.00 L725.50 46.70 L721.60 48.56 L557.42 164.25 L483.45 218.14 L445.61 245.43 L422.10 268.29 L413.76 277.36 L406.32 287.43 L402.40 294.04 L397.25 303.88 L382.92 337.02 L382.02 340.32 L382.14 343.51 L383.42 346.87 L401.10 377.35 L406.71 388.41 L408.69 393.95 L409.67 399.48 L409.67 405.41 L409.06 409.89 L407.55 414.15 L404.08 418.85 L399.18 422.63 L394.80 424.43 L389.86 424.89 L383.03 423.33 L373.41 418.72 L313.54 384.06 L306.91 380.90 L296.95 377.60 L285.42 375.08 L277.70 374.30 L270.31 374.18 L263.03 375.42 L256.60 379.78 L251.97 384.82 L249.53 389.75 L248.02 393.65 L246.84 399.50 L246.44 403.12 L246.42 408.33 L247.63 414.51 L250.13 421.51 L252.51 424.89 L256.46 428.19 L265.37 432.61 L474.03 507.43 L477.14 509.21 L478.53 510.49 L480.09 513.31 L481.61 518.68 L487.02 534.70 L489.93 541.64 L491.61 544.66 L494.08 548.02 L497.91 551.05 L502.32 553.48 L505.87 554.00 L508.40 553.98 L513.34 552.42 L516.44 549.93 L519.68 544.96 L520.60 542.32 L521.45 539.28 L522.25 533.50 L522.96 525.41 L522.73 511.08 L521.78 499.75 L520.31 493.04 L517.45 484.65 L515.66 479.20 L513.52 473.65 L510.34 466.64 L507.67 461.28 L484.25 418.62 L467.49 388.51 L464.90 383.50 L462.74 378.88 L460.66 373.88 L459.45 369.77 L458.50 365.46 L457.93 361.35 L457.30 355.14 L457.60 349.83 L458.18 344.51 L458.88 340.33 L460.46 335.21 L462.36 329.57 L464.90 323.62 L467.62 318.31 L471.10 313.75 L473.95 310.02 L477.55 306.28 L483.70 300.45 L489.77 296.66 L496.48 293.37 L502.24 291.02 L510.03 289.00 L516.86 287.80 L523.77 287.16 L532.37 286.46 L541.42 286.46 L547.75 286.53 L557.68 284.79 L565.62 282.16 L577.05 276.59 L586.01 270.37 L594.82 264.82 L601.76 262.35 L607.81 261.68 L613.47 263.02 L616.75 265.08 L620.90 269.61 L632.81 287.85 L638.93 296.91 L644.18 304.67 L650.03 313.33 L652.73 317.33 L654.67 320.21 L655.77 321.83 L656.86 323.44 L657.82 324.86 L659.16 326.85 L665.17 336.03 L677.37 352.52 L684.77 359.42 L694.05 364.89 L702.44 367.75 L709.80 369.32 L717.76 369.88 L725.57 368.77 L732.35 367.02 L738.12 364.76 L744.61 360.58 L749.81 356.15 L752.19 353.65 Z" fill="none" stroke="#ffffff" stroke-width="18" stroke-linecap="round" stroke-linejoin="round"/>
</svg>
