<?xml version="1.0" encoding="UTF-8"?>
<!-- Silueta derivada de datos de OpenStreetMap (ODbL): https://www.openstreetmap.org/copyright -->
<svg xmlns="http://www.w3.org/2000/svg" viewBox="0 0 1000 600" role="img">
  <title>Silueta de circuito</title>
  <path d="M485.09 407.10 L540.69 287.97 L543.54 281.87 L579.99 203.77 L589.02 184.41 L595.97 169.52 L598.00 165.14 L599.69 160.94 L601.12 156.42 L602.41 151.80 L603.56 146.72 L604.32 142.04 L604.84 137.43 L605.17 132.80 L608.25 85.31 L608.35 82.44 L608.28 79.57 L608.07 76.91 L607.65 73.97 L606.92 71.02 L606.02 68.43 L604.89 65.57 L603.62 63.06 L601.93 60.48 L600.18 58.24 L598.08 55.87 L595.77 53.85 L593.33 52.04 L590.75 50.43 L588.12 49.05 L585.21 47.88 L582.26 47.00 L579.02 46.33 L575.80 46.03 L572.57 46.00 L569.62 46.16 L566.60 46.67 L563.72 47.51 L560.90 48.56 L558.10 49.73 L555.51 51.12 L553.06 52.69 L550.76 54.53 L548.89 56.41 L547.23 58.27 L545.59 60.57 L544.16 62.87 L526.63 92.77 L525.10 95.73 L523.77 98.97 L522.83 102.28 L522.30 105.58 L522.20 108.96 L522.52 112.55 L523.33 115.96 L524.62 119.16 L530.20 130.12 L531.38 132.94 L532.40 135.83 L533.19 138.90 L533.72 141.97 L534.13 145.11 L534.32 148.25 L534.29 151.39 L534.05 154.52 L533.57 157.78 L532.73 160.83 L531.55 163.88 L530.10 166.93 L528.48 169.73 L526.66 172.53 L524.77 175.17 L522.68 177.81 L432.02 278.51 L430.48 280.18 L428.74 281.84 L427.00 283.20 L425.01 284.43 L422.96 285.38 L420.89 286.18 L404.13 291.45 L402.03 292.34 L400.09 293.58 L398.36 294.99 L396.61 296.83 L395.24 298.59 L393.99 300.57 L393.05 302.55 L392.44 304.48 L392.00 306.56 L391.78 308.45 L391.67 310.44 L391.65 312.51 L395.14 411.93 L398.67 528.90 L398.89 531.36 L399.26 533.74 L399.91 536.28 L400.84 538.74 L402.10 541.15 L403.52 543.39 L405.40 545.61 L407.40 547.49 L409.61 549.23 L411.97 550.74 L414.43 551.98 L416.88 552.89 L419.49 553.55 L422.22 553.94 L424.94 554.00 L427.51 553.87 L430.13 553.51 L432.64 552.89 L435.10 551.95 L437.40 550.79 L439.30 549.52 L441.05 548.13 L442.99 546.37 L444.70 544.50 L446.46 542.02 L447.94 539.21 L449.04 536.53 L449.84 533.70 L450.22 530.94 L450.33 528.19 L450.11 525.35 L449.64 522.68 L447.04 513.44 L446.37 510.58 L445.85 507.81 L445.51 504.90 L445.42 501.89 L445.55 499.05 L445.81 496.10 L446.24 493.27 L446.82 490.58 L447.67 487.87 L448.76 485.16 L449.81 482.71 L450.95 480.24 L455.83 469.79 L485.09 407.10 Z" fill="none" stroke="#ffffff" stroke-width="18" stroke-linecap="round" stroke-linejoin="round"/>
</svg>
